<?xml version="1.0" encoding="UTF-8"?>
<svg id="Capa_2" data-name="Capa 2" xmlns="http://www.w3.org/2000/svg" viewBox="0 0 335.8 96.9">
  <defs>
    <style>
      .cls-1 {
        fill: #f3b9a4;
      }

      .cls-1, .cls-2, .cls-3, .cls-4, .cls-5, .cls-6, .cls-7, .cls-8, .cls-9, .cls-10, .cls-11, .cls-12, .cls-13, .cls-14, .cls-15, .cls-16, .cls-17, .cls-18, .cls-19, .cls-20, .cls-21, .cls-22, .cls-23, .cls-24, .cls-25, .cls-26, .cls-27, .cls-28, .cls-29, .cls-30, .cls-31, .cls-32, .cls-33, .cls-34, .cls-35, .cls-36, .cls-37, .cls-38, .cls-39, .cls-40, .cls-41, .cls-42, .cls-43, .cls-44, .cls-45, .cls-46, .cls-47, .cls-48, .cls-49 {
        stroke-width: 0px;
      }

      .cls-1, .cls-4, .cls-5, .cls-6, .cls-7, .cls-8, .cls-9, .cls-12, .cls-13, .cls-15, .cls-18, .cls-20, .cls-21, .cls-23, .cls-24, .cls-26, .cls-27, .cls-28, .cls-29, .cls-30, .cls-32, .cls-33, .cls-36, .cls-37, .cls-41, .cls-44, .cls-45, .cls-46, .cls-48, .cls-49 {
        opacity: .7;
      }

      .cls-2, .cls-24 {
        fill: #fefefe;
      }

      .cls-3 {
        fill: #e66738;
      }

      .cls-4 {
        fill: #f9d9ce;
      }

      .cls-5 {
        fill: #f0a78c;
      }

      .cls-6 {
        fill: #f7d1c4;
      }

      .cls-7, .cls-11 {
        fill: #fdf8f6;
      }

      .cls-8 {
        fill: #fefbfb;
      }

      .cls-9 {
        fill: #f6cab9;
      }

      .cls-10 {
        fill: #eb8560;
      }

      .cls-12 {
        fill: #f3b6a0;
      }

      .cls-13 {
        fill: #f5c8b7;
      }

      .cls-14 {
        fill: #fcf3f0;
      }

      .cls-15 {
        fill: #fdfaf9;
      }

      .cls-16 {
        fill: #fbe6df;
      }

      .cls-17 {
        fill: #e13e03;
      }

      .cls-18 {
        fill: #f8d4c8;
      }

      .cls-19 {
        fill: #ed9170;
      }

      .cls-20 {
        fill: #fae5de;
      }

      .cls-21 {
        fill: #f5c7b6;
      }

      .cls-22 {
        fill: #fefbfa;
      }

      .cls-23 {
        fill: #fefcfb;
      }

      .cls-25 {
        fill: #eb845e;
      }

      .cls-26 {
        fill: #f5c4b2;
      }

      .cls-27 {
        fill: #f7cebf;
      }

      .cls-28 {
        fill: #fbebe6;
      }

      .cls-29 {
        fill: #f5c6b4;
      }

      .cls-30 {
        fill: #f3b8a2;
      }

      .cls-31 {
        fill: #ea7b53;
      }

      .cls-32 {
        fill: #fbe6de;
      }

      .cls-33 {
        fill: #fbe8e1;
      }

      .cls-34 {
        fill: #f6c9b9;
      }

      .cls-35 {
        fill: #f0a489;
      }

      .cls-36 {
        fill: #f3bca7;
      }

      .cls-37 {
        fill: #fefdfc;
      }

      .cls-38 {
        fill: #e6683a;
      }

      .cls-39 {
        fill: #ec8a66;
      }

      .cls-40 {
        fill: #e03e03;
      }

      .cls-41 {
        fill: #f4bfac;
      }

      .cls-42 {
        fill: #e87349;
      }

      .cls-43 {
        fill: #f4bba7;
      }

      .cls-44 {
        fill: #fefcfc;
      }

      .cls-45 {
        fill: #f6c8b8;
      }

      .cls-46 {
        fill: #fefefd;
      }

      .cls-47 {
        fill: #fdf5f3;
      }

      .cls-48 {
        fill: #fcede8;
      }

      .cls-49 {
        fill: #fcf0eb;
      }
    </style>
  </defs>
  <g id="Diagramacion">
    <g>
      <path class="cls-5" d="m87.4,43.7c.5.1.9.3,1.2.4.4-.2.8-.4,1.1-.7-.7,0-1.5.1-2.3.3Z"/>
      <path class="cls-5" d="m90.3,86.1c-.2-.9-1-.9-1.7-.9-.7,0-1.4-.1-2.1,0,.4.1.8.3,1.2.4.7.2,1.9-.6,2.2.6.1.5-.2.8-.6,1-2.1.3-4.1.5-6.2.1-3.2-.8-6.1-2.3-8.9-4,0,.2-.2.3-.3.4-.4.2-.9,0-1.3.1,0,.1-.2.2-.2.4-.1.2-.3.3-.4.4.3.2.5.3.8.4,0,0,0,0,0,0,0,0,.1,0,.2,0,0,0,.1,0,.2,0,.1,0,.2,0,.3.2,0,0,0,0,.1,0,0,0,0,0,0,0t0,0c.2.2.3.3.5.4.9.6,1.8,1,2.8,1.4,3.4,1.3,7.1,1.2,10.8.9.1,0,.3,0,.4-.1,0,0,0,0,.1,0h0c.3,0,.5-.2.8-.3.2-.2.4-.4.6-.6,0,0,0-.1.1-.2,0,0,.1-.2.1-.3h0c0-.2.1-.5,0-.7Z"/>
      <path class="cls-5" d="m63.5,79.2c0-.3,0-.5,0-.7,0,0-.1-.1-.2-.2-.7-.5-1.4-.8-1.3.5.1,2.3-.3,4.6.8,6.8.1.4.3.8.4,1.3-5.9-.3-6.4-1.5-7.1-6.4-1.2-9.4-1.2-18.8.3-28.1,0-.4,0-.8-.2-1.3-.7,1.5-2,2.8-1.5,4.8.2.7,0,.9-.6,1.1-.9,8-.8,16,0,24,.5,4.6,1.8,6.3,5.4,6.9.7.1,1.4,0,2.2,0,.2,0,.3,0,.5.1.6,0,.9-.4,1.1-.9,0,0,0,0,0-.1,0,0,0,0,0,0,0,0,0,0,0-.1,0-.3,0-.6,0-.9,0,0,0-.2,0-.3,0,0,0-.1,0-.2-.7-2.1-.7-4.2-.5-6.6.3.2.5.3.8.5Z"/>
      <path class="cls-5" d="m69.7,40.5c-1.3,1.9-1.6,4.2-2.1,6.3-1.7,6.3-2.6,12.8-3.3,19.9-.2.2-.4.4-.6.7-.2.2-.4.4-1.2,1,.3-2.9.5-5.2.8-7.6,1.1-6.6,1.9-13.3,4.7-19.5.3-.6.5-1.3,0-1.8-2.3-1.8,0-2.6.9-3.2,1.6-1,3.2-1.9,4.8-2.9.6-.4,1.2-.8,1.9-1-2.5,1.4-4.6,3.4-7.2,4.7,1,1.2,2.6,1.7,1.5,3.4Z"/>
      <path class="cls-5" d="m61.7,46.3h0s0,0,0,0c0,0,0,0,0,0Z"/>
      <path class="cls-5" d="m61,49.7c0,0-.3-.1-.3,0-.4.3-.3.7-.2,1.1,0,.9-.7,1.8,0,3,.7-1.1.5-2.1.5-3,.3-.3.5-.7.1-1.1Z"/>
      <path class="cls-5" d="m59.8,46.4c-.5.6-.5,1.2-.1,2.1.2-.5.4-.9.5-1.2.6-2,1.5-3.9,1.9-6.4-2,1.7-2,3.6-2.3,5.5Z"/>
      <path class="cls-5" d="m59.8,62.1c-.3,2.5-.3,4.9,0,7.4,0,.6,0,1.2,0,1.8,0,.6,0,1.2.3,1.5h0c0,.6-.2,1.3-.9,1.3-.8,0-1.2-.8-1.2-1.5.4-5.9-.2-11.9,2.4-17.5-.2,2.3-.4,4.7-.7,7Z"/>
      <path class="cls-5" d="m68.1,30.7c-3.5,2-6.7,4.4-9.7,7.1l-4.1,4.4c-2.3,3-4.7,5.9-5.6,9.7-.7,3,1.5,5.4,4.4,5.1,0,.3,0,.5-.5.6-1.7.8-3.2-.1-4.7-.8-1.4-.6-1.5-1.9-1.2-3.2.8-3.8,3-6.8,5.3-9.8.5-.7,1.1-1.3,1.7-2l4.4-4.4c3.1-2.6,6.4-5,9.9-6.8Z"/>
      <path class="cls-5" d="m165.4,20.1c-.8-.4-1.6-.7-2.2-1.3-.9-.8-1.6-1.1-2.4-.9-.7.1-1.4.6-2.1,1.2-9.7,8.4-17.6,18.3-24.6,29-.4.6-.9,1.3-1.3,2-1.1,0-.5-.8-.5-1.3.6-6,2.1-11.9,3.3-17.8.9-4.6,1-4.6-3.4-6.6-1-.4-1.7-.7-2.3-.7-1.2,0-1.9.7-2.8,2.5-1.7,3.3-3.1,6.7-4.2,10.2-3.7,11.4-4.1,23.2-3.7,35.1,0,1.7.5,3.4,1.3,5,1.3,2.4,5.8,4,8.1,2.9.2,0,.4-.3.6-.6,1.4-2.2,2.9-8.9,2.1-10.1-.2-.2-.4-.4-.6-.6-1.1-1-.7-1.4.5-1.9.2,0,.3-.1.5-.2.8-.2,1.6-.4,2.1-1,.1-.1.2-.3.3-.5,2.9-5.9,6.1-11.5,10.2-16.6,2.3-2.8,4.1-6,7-8.7,0,.3,0,.6,0,.8,0,2.1-.5,3.9-.9,5.7-1.3,6.2-2,12.4-1.4,18.7.5,5.6,3.4,10,10.9,8.2,0-.2,0-.3-.1-.5-.4-1.4-1-2.9-1-4.3.1-7.3,1.6-14.3,3.8-21.2,2.1-6.6,4-13.3,5.9-19.9,1.1-3.5.3-5-3-6.6Zm-36,33.1c.2,2.8.5,5.6,0,8.5-.9-3.2-.9-6.4-.7-9.7-.1-.6,0-1.2.1-1.8,0-.2,0-.3,0-.5,0-2,0-3.9.2-5.9.2-2.8.6-5.5,1.1-8.3,0-.1,0-.2,0-.4,0,0,0-.2,0-.3h0s0,0,0,0c0,0,0-.1,0-.2,0,0,0-.2,0-.3,0,0,0-.2,0-.3,0-.2.1-.3.2-.5.2-.5.3-1.3,1-1.2.8.2.4.9.3,1.5-.9,6.4-1.8,12.8-2.6,19.2Z"/>
      <path class="cls-5" d="m245.5,60.9c-3.8,3-8.2,5-12.6,7-3.5,1.6-7.2,1-10.6-.8-.5-.3-1.1-.8-1.4-1.3-.4-.5-.5-1.3,0-1.8.4-.5,1.2-.4,1.6-.1.1,0,.2.2.3.3,0,0,0,0,0,0,0,.1.1.2.2.3.3.4.7.8,1.1,1,2.6,1.5,5.5,2.2,8.5,1.6,4-.8,7.6-2.9,11-5,.6-.4,1.3-.8,1.9-1.2Z"/>
      <path class="cls-5" d="m253.1,41.8c-.8,2.6-2.2,4.7-4,6.6-4.2,4.6-8.9,8.5-14.2,11.7,5.3-3.5,10-7.6,14-12.7.9-1.1,1.4-2.3,1.9-3.6.7-2,.5-2.2-1.6-1.9-5,.7-9.9,2.2-14.6,3.9-3.9,1.4-7.7,1.8-11.6.2-3.7-1.6-4.6-3.7-3.4-7.6,1.4-4.4,4.4-7.8,7.2-11.2,4.8-5.7,10.4-10.3,16.8-14-6,3.8-11.4,8.3-15.8,14-2.3,3-4.8,5.9-6,9.7-1.3,3.9-.4,6.1,3.2,7.6,1.8.7,3.6,1.1,5.5,1.1,3.8,0,7.3-1.6,10.8-2.8,3.5-1.2,7.1-1.8,10.8-2.4,1.1-.2,1.6,0,1.2,1.4Z"/>
      <path class="cls-5" d="m244.1,31.1c-.4.5-1,.9-.2,1.6,1,.9,4.3,1.1,6.3.6,0,0,0,0-.1,0-1.3,1-2.4,1.7-4,1.4-.6,0-1.1,0-1.6,0-1.2,0-2.5-.2-3-1.3-.4-1,.8-1.6,1.4-2.2,3.6-4,6.8-8.4,9.9-12.8.3-.4.9-.9.4-1.5-.4-.4-.9-.2-1.4,0,.6-.4,1.1-.8,1.7-1.2.6-.4,1.5-.9,2-.2.5.7-.4,1.3-.8,1.8-3.2,4.8-6.8,9.3-10.7,13.6Z"/>
      <path class="cls-5" d="m316.7,36.2c-1.5-1.4-3-1.7-4.8-1.1-3.9,1.2-4.3.9-3.5-3.1.8-3.7,1.9-7.4,3.4-10.9.7-1.7,1.8-3.2,2.7-4.7.9-1.5.4-2.2-1.1-2.4-4.2-.7-5-1.3-6.5.1,1.3-.3,2.7,0,4.7.9,1.1.4,1.6.9.8,2.1-1.1,1.7-2.2,3.4-3,5.3-1.6,3.8-2.8,7.6-3.4,11.6-.4,2.7,0,3.1,2.8,2.2,1.4-.5,2.8-.6,4.2-.2.5.2,1.1.4,1.1.9,0,.1,0,.3,0,.3.9-.2,1.7-.6,2.6-1.1Zm-6.4-31.8c-2.3,1.8-4.6,3.5-6.2,6-2.3,3.7-4.6,7.3-4.5,11.9.7-1,1.4-2,2-3.1,0,0,0,0,0,0,0,0,0-.2,0-.3,1.8-5.9,4.8-10.9,9.9-14.7.3-.2.5-.4.8-.5-.8,0-1.5.3-2.1.7Zm-9.1,49.4c.1,0,.3,0,.4,0,.5,0,.4-.5.3-.9-1.1-4-.5-8-.5-12,0-5.9.4-11.6,3.3-16.9,0,0,0,0,0,0,0-.3.2-.7.4-1,0-.2-.3-.3-.6-.4-1.1.2-1.5,1.1-1.8,2-2.2,7.9-3.7,15.9-3,24.1,0,1.2.4,2.5.7,3.7,0-.2-.2-.3-.2-.5-2.2-4.8-2.5-9.9-2-15,.2-1.7-.1-3-1.2-4.3-2.6-3.3-2.8-7.2-2-11.1,1.4-7.5,4.8-13.9,10.9-18.6.6-.5,1.3-.9,2-1.3-.6.2-1.1.4-1.6.7-7.3,4-10.9,10.6-12.9,18.2-1.4,5.1-1.4,10,2.4,14.2.5.6.5,1.3.4,2-.5,4.1-.5,8.2.5,12.2,1.1,4.3,2.7,8.4,7.6,9.6,3.2.8,6.2.6,8.8-.8-4.2,1.2-9-.3-11.7-3.9Zm7.5-.7c-1.7-4.6-1.6-9.3-1.2-14.1,0,0,0-.1,0-.2-.1,0-.3,0-.4,0-1.3,0-1.8.4-1.8,1.8,0,3.9-.5,7.9.8,11.8.4,1,.4,2.4,1.5,2.7.7.2,1.3-.4,1.8-1-.2-.2-.4-.5-.6-1Zm-7.3-33.1c0-.3,0-.5.1-.7,0,.3-.1.5-.1.7Z"/>
      <path class="cls-5" d="m114.6,24.3c-.3-.1-.5-.2-.8-.3-1-.2-1.8.3-2.4,1.4-6.1,10-12.3,19.9-18.2,30-1.2,2-2.5,3.5-4.2,4.5-.8.5-1.8.8-2.9,1.1-.4,0-.8.2-1.2.3-1.5.5-2.8,1.2-4,2.3-.8.8-1.3,2-.2,2.5,1.3.7,2.7,1.4,4.3,1.1.4,0,.9-.4,1.2,0,.4.5-.1.9-.3,1.4-1.2,2.7-2.5,5.4-3.7,8.1-.4.8-.6,1.6.3,2.3,1.2.9,3.7.5,5.1-.6.3-.3.6-.6.8-.9,1.8-3.6,3.8-7.1,5.3-10.9,1.1-2.7,2.9-4,5.5-4.7h.2c.8-.3,1.7-.4,2.5-.7,2-.8,2.3.2,2.2,1.9-.2,4.5-.3,8.9-.5,13.5-.1.8.2,1.7.4,2.6.4,2.1,2.2,3.3,4.8,3.1,1.3,0,2.1-.3,2.6-.9.5-.5.7-1.3.9-2.5.6-5.3,1.2-10.6,1.7-15.9,1-10.8,2.2-21.5,4.5-32.1,1.3-5.7,0-4.9-4-6.8Zm-7.9,31c0,.6-.4,1-1.1,1s-.7,0-1,0c-1.2.1-2.4.4-3.8,0,1.7-2.8,3.3-5.4,4.9-8,.7-1.1,1.4-2.2,2-3.3.1,0,.3,0,.4.1-.5,3.3-.9,6.7-1.4,10Z"/>
      <path class="cls-5" d="m185.2,33.4c-.2,1.3-.4,2.7-.2,4.1.2,1.8,2,3,4.3,3.2,1.5.2,2.3-.4,2.7-1.4.2-.3.3-.7.4-1.2.7-3,1.5-6,2.7-8.9,1.4-3.1,2.4-6.3,3.6-9.5.4-1.2.4-2.1-.9-2.7-1.4-.7-2.7-1.4-4.1-2.1-.3-.1-.6-.2-.9-.2-.3,0-.6,0-.8.3-1.1,1.3-2.5,1.4-4.1,1.3-.3,0-.6,0-.9.2-.4.1-.7.3-1.1.6-2.1,1.5-4,3.2-5.4,5.3-1.5,2.2-2.8,4.6-4.2,6.8-1.5,2.4-3.3,4.7-4.6,7.2-4.3,8.3-7.3,17-5.7,26.6.8,4.8,2.8,8.7,7.8,10.1,4.6,1.3,9,1.5,12.7-1.6.3-.3.6-.5.9-.9,5.5-5.7,9-12.5,11.3-20.1.3-1,0-1.5-.9-1.7-.9-.2-1.8-.4-2.7-.6t0,0c-1.1-.3-1.7.2-2.1,1.3-2.8,7.2-7.2,13.4-12.8,18.7,0,0-.1.1-.2.2-2,1.8-2.6,1.6-3.5-1-1.9-5.9-.9-11.7.4-17.5,1.5-6.7,4.8-12.8,8-19,.6.4.4.8.3,1.2,0,.5-.2,1-.2,1.5Zm-1.9-2.9c-4,7.9-7.1,16-8.9,24.7-.1.6,0,1.7-1.1,1.5-.8-.2-.4-1.1-.4-1.7,0-.6,0-1.3.1-1.9.4-3.3,1.4-6.5,2.4-9.7,1.7-5.5,3.8-10.9,6.6-15.9.2-.4.4-.7.6-1,1.1-1.6,2.1-1.7,3.8-.6-1.8,1-2.4,2.8-3.2,4.5Z"/>
      <path class="cls-5" d="m279.4,21.2c-.3,1.8-.7,3.6-.4,5.5.2,1.8,2,3,4.3,3.2,1.5.2,2.3-.4,2.8-1.4.1-.3.3-.7.4-1.2.7-3.1,1.5-6.1,2.8-9.1,1.3-3,2.3-6.2,3.5-9.3.4-1.2.4-2.1-.9-2.7-1.4-.6-2.7-1.4-4.1-2.1-.6-.3-1.2-.4-1.6,0-1.1,1.3-2.5,1.4-4.1,1.3-.7,0-1.4.3-2,.7,0,0,0,0-.1,0-2,1.5-3.9,3.1-5.3,5.2-1.5,2.2-2.8,4.7-4.2,6.8-1.5,2.4-3.3,4.7-4.6,7.2-2.9,5.7-5.3,11.5-5.9,17.7,0,.3,0,.7-.1,1.1-.2,2.6-.1,5.2.3,8,.8,4.7,2.8,8.5,7.8,9.9,4.8,1.4,9.4,1.5,13.2-2.1.2-.1.3-.3.4-.4,5.5-5.7,9.1-12.5,11.3-20.1.3-1,0-1.5-.9-1.7-.9-.2-1.8-.4-2.7-.7-.2,0-.3,0-.4,0-.9,0-1.3.4-1.7,1.3-2.8,7.2-7.2,13.3-12.7,18.6,0,0-.2.2-.3.3-2,1.8-2.6,1.6-3.5-1-1.9-5.8-.9-11.6.3-17.3,1.5-6.8,4.8-13,8.1-19.2.7.3.4.7.3,1.2,0,0,0,0,0,.1Zm0-5.4c-.7.4-1.1,1.1-1.5,1.8-4.2,8.4-7.9,16.9-9.8,26.2,0,.2,0,.4-.2.6-.2.6-.1,1.6-.9,1.5-.5,0-.6-.3-.6-.7h0c0-.4.1-.9,0-1.2.3-5.2,2.2-10.1,3.8-15,1.4-4.3,3.3-8.5,5.5-12.4.2-.3.3-.6.5-.9.6-.9,1.3-1.6,2.7-1.4.3,0,.8.2.9.5.2.4-.2.6-.5.8Z"/>
      <path class="cls-1" d="m313.5,64.8c-.2,0-.3.2-.5.2-2.3,1.1-4.6,2.3-6.9,3.4-.8.4-1.6,1-2.6.3-.2-.1-.5-.2-.7-.1.2,0,.4-.2.7-.3.4-.2.8-.4,1.2-.6h0c0-.3,0-.4,0-.5-.1-.2-.4,0-.7,0-3.8.9-7.7,1.7-11.5,2.7-11.7,3.1-23.7,4-35.7,4.6-10.8.6-21.6,1-32.5.7-7.1-.2-14.1.4-21.2.8-6.3.4-12.5.8-18.8,1.4-9.5.8-19,1.5-28.5,2.2-5.5.4-10.9.9-16.4,1.4-9.6.8-19.2,1.8-28.9,2.5-6.3.4-12.6.7-18.9.9-.2,0-.5,0-.7,0,0,0,0,0,0,0h-.9c-.2,0-.4,0-.6,0h0c-.4,0-.8,0-1.2,0-.6,0-1.3-.1-1.8.4.4.1.8.3,1.2.4.7.2,1.9-.6,2.2.6.1.5-.2.8-.6,1-.4.2-.8.4-1.1.6-.1,0-.2.2-.3.3.2,0,.4,0,.5,0,3.9.3,7.8,0,11.7-.3,6.4,0,12.7-.5,19-1,11.2-.9,22.4-1.7,33.6-2.8,4.9-.4,9.9-.8,14.9-1.3,10-1.1,20.1-1.9,30.2-2.3,18.4-.8,36.8-1.1,55.2-1.6,11.1-.3,22.2-1,33.1-3.2,9.8-2,19.3-4.6,27.8-10,.1,0,.3-.2.4-.3-.1-.7-.4-.7-.8-.6Zm-12.2,4.2c.3,0,.7,0,1-.2-.3.2-.6.3-.9.2,0,0,0,0-.1,0h0s0,0,0,0h0Z"/>
      <path class="cls-5" d="m201.5,72c-.2,0-.5,0-.7-.1-1.2-.4-2.9-.3-3-1.9,0-1.4,1.4-2,2.6-2.2,2.3-.5,2.6-1.8,2.2-3.9-.9-4.6-.6-9.3,0-14,.8-8,1.8-16,4.2-23.8.1-.4.4-.9,0-1.2-.4-.3-.8,0-1.2.3-1.9.9-3.9.4-5.1-1.3-.8-1-.3-1.9.2-2.8,1-1.6,2.5-2.7,4.1-3.5,5.2-2.8,10.5-5.5,16.4-6.7,1.7-.3,4.6,1,5.5,2.3.7,1.1-.1,1.3-.9,1.6-2.5.8-4.9,1.7-7.2,3-.8.5-1.7.8-.6,1.9.7.8.5,1.8.2,2.7-2.2,7.5-3.4,15.2-4.7,22.8-1,5.8-2,11.5-2.3,17.3-.1,1.7.2,2.7,2.2,2.7,1.5,0,3,.6,4.3,1.3.3.2.6.4.5.8,0,.3-.4.4-.7.4-5.1.3-9.7,2.5-14.6,3.9-.4.1-.8.2-1.2.3Z"/>
      <path class="cls-36" d="m88.6,88.2h-.7c-3.2.3-6.3.3-9.3-.7h0c-1.1-.4-2.2-.9-3.3-1.6-.3-.2-.6-.2-.9-.3-.1-.1-.3-.2-.5-.2,0,0-.2,0-.3,0,0,0-.1,0-.2,0h0c-.1,0-.2,0-.3,0h-.3c-.1,0-.2-.1-.3-.3,0,0,0,0,0,0,0,0,0,0,0,0-.1-.1-.2-.2-.4-.3-.5.4-1.1.5-1.9.3-.2,0-.4.1-.6.2h0c-.4.1-.9.3-1.4.3,0,0-.1,0-.2,0h0s0,0,0,0v.2c.2.3.5.4.8.4-.7,0-1.4,0-2.2,0h0s0,0,0,0c-.3,0-.6,0-.8,0h0s0,0,0,0c-.2,0-.3,0-.5,0s-.3,0-.4,0h0c-.3,0-.7.1-1,.2,0,0-.2,0-.3,0h0c-.2.6-.7.9-1.4,1,.2,0,.3,0,.5.1,1.4.4,2.9.5,4.4.6,4.2.4,8.5,0,12.7.2,6.7.4,13.3-.3,19.9-.3.3,0,.5-.2.8-.3l-11.5.3Zm-18.5-1.9c0,0-.1,0-.2,0-.3,0-.7,0-1,0,.4,0,.9-.1,1.3,0Z"/>
      <path class="cls-26" d="m323.3,57.1c-1.6,1.6-3.1,3.1-4.7,4.7,0,0,.1.1.2.2,1.5-1.6,3.1-3.1,4.6-4.7l-.2-.2Z"/>
      <path class="cls-29" d="m314.3,65.4c-.3-.5-.8-.4-1.3-.4,1.8-.7,3.4-1.7,5-2.8-.7,1.7-2.2,2.4-3.6,3.2Z"/>
      <path class="cls-27" d="m327.5,51.7c-.2,1.1-1,1.8-1.7,2.6-.2,0-.3-.2-.4-.4.4-.9,1-1.6,1.7-2.2.1-.2.2-.2.4,0Z"/>
      <path class="cls-45" d="m327.5,51.7h-.2s-.2,0-.2,0c.4-1,1.2-1.5,2-2.1-.3.9-.8,1.6-1.6,2.1Z"/>
      <path class="cls-21" d="m332.5,46.2c.1-.9.6-1.4,1-1.5-.2.3-.6.9-1,1.5Z"/>
      <path class="cls-13" d="m325.4,53.9c.1.1.2.2.4.4-.2.6-.6,1.1-1.4,1.4,0-.9.8-1.2,1-1.7Z"/>
      <path class="cls-48" d="m303.6,68.8c-.7,0-1.4.8-2.3.3.8-.4,1.5-.8,2.3-.7,0,.1,0,.3,0,.4Z"/>
      <path class="cls-4" d="m132.8,50.1c-.1.3-.4.9-.6.6-.5-.5-.3-1.3.1-1.8.1.4,0,1,.5,1.2Z"/>
      <path class="cls-18" d="m304.8,67.8c-.3-.1-.6-.3-.8-.4.4-.5,1-.7,1.4-.2.2.2-.2.5-.6.6Z"/>
      <path class="cls-24" d="m69.7,40.5c-1.3,1.9-1.6,4.2-2.1,6.3-1.7,6.3-2.6,12.8-3.3,19.9-.2.2-.4.4-.6.7-.2.2-.4.4-1.2,1,.3-2.9.5-5.2.8-7.6,1.1-6.6,1.9-13.3,4.7-19.5.3-.6.5-1.3,0-1.8-2.3-1.8,0-2.6.9-3.2,1.6-1,3.2-1.9,4.8-2.9.6-.4,1.2-.8,1.9-1-2.5,1.4-4.6,3.4-7.2,4.7,1,1.2,2.6,1.7,1.5,3.4Z"/>
      <path class="cls-24" d="m68,85.8s0,0-.1,0c0,0,0,0-.1,0-.5.3-1,.5-1.4.5h0s0,0,0,0c-.3,0-.6,0-.8,0h0s0,0,0,0c-.1,0-.3,0-.4,0-.1,0-.3,0-.4,0-.4-.1-.8-.3-1.2-.5-.2-.1-.4-.2-.6-.3-1.1-2.2-.7-4.5-.8-6.8,0-1.3.7-1,1.3-.5,0,0,.1.1.2.2,0,.3,0,.5,0,.7,0,1.7,0,3.4.9,5,.1.4.3.9.5,1.3.1,0,.2,0,.3,0h0c.1,0,.3.1.5.2.1,0,.2,0,.3,0,0,0,.1,0,.2,0,0,0,.1,0,.2,0,.1,0,.3,0,.4,0,.3,0,.5,0,.8,0h.1s0,0,0,0c0,0,.1,0,.2,0Z"/>
      <path class="cls-24" d="m69.4,84.9c0,0,0,0-.1,0h0s.1,0,.1,0Z"/>
      <path class="cls-24" d="m73.3,84.8c0,.3,0,.5-.1.6-.2.3-.6,0-.9,0,0,0,0,0-.1,0-1,0-1.9,0-2.9.1.2,0,.4-.1.6-.2.8.2,1.4.1,1.9-.3,0,0,0,0,.1-.1.1-.1.3-.3.4-.4.3.1.6.3.9.4Z"/>
      <path class="cls-15" d="m59.8,62.1c-.3,2.5-.3,4.9,0,7.4,0,.6,0,1.2,0,1.8,0,.6,0,1.2.3,1.5h0c0,.6-.2,1.3-.9,1.3-.8,0-1.2-.8-1.2-1.5.4-5.9-.2-11.9,2.4-17.5-.2,2.3-.4,4.7-.7,7Z"/>
      <path class="cls-49" d="m71.2,86.6c-2,0-3.8.4-5.6.5h0c-.7,0-1.5,0-2.2-.2,0,0-.2,0-.3,0h0c-.1-.4-.3-.8-.4-1.3.2,0,.3,0,.5,0,.5,0,1,0,1.5.2.1,0,.3,0,.4,0,.3,0,.7.1,1,.1,0,0,.1,0,.2,0,.1,0,.3,0,.4,0,.3,0,.5,0,.8,0h.1s0,0,0,0h0c.7.7,1.5.4,2.5.5h0c.3,0,.6.1.9.3Z"/>
      <path class="cls-7" d="m62.1,40.9c-.4,2.5-1.3,4.4-1.9,6.4-.8,0-.5-.5-.4-.9.3-1.9.3-3.8,2.3-5.5Z"/>
      <path class="cls-8" d="m60.9,50.8c0,.9.2,2-.5,3-.6-1.2.2-2.1,0-3,.1-.1.3-.2.5,0Z"/>
      <path class="cls-12" d="m61.7,46.3h0s0,0,0,0c0,0,0,0,0,0Z"/>
      <path class="cls-33" d="m60.9,50.8c-.2,0-.3,0-.5,0,0-.4-.1-.8.2-1.1,0,0,.3,0,.3,0,.3.4.2.7-.1,1.1Z"/>
      <path class="cls-28" d="m60.2,47.3c-.1.3-.3.7-.5,1.2-.4-.9-.4-1.5.1-2.1.1.3.3.6.4.9Z"/>
      <path class="cls-30" d="m72.2,85.3c.4-.1.9,0,1.2-.5.5,0,.8.3,1,.8,0,0-.2,0-.2,0h-.2c-.6.3-1.1.5-1.7,0,0-.1,0-.3,0-.4Z"/>
      <path class="cls-8" d="m130.6,34.2c0,0,0,.2,0,.3,0,0,0,.2,0,.3,0,0,0,.1,0,.2h0c0,.1,0,.2,0,.3,0,.1,0,.2,0,.4-.5,2.7-.9,5.5-1.1,8.3-.5,3.4-.9,6.9-1.4,10.3h0c-.4-.4-.6-.8-.7-1.2,0-.5,0-1,.1-1.5,0-.2,0-.5,0-.7,0-4.8.3-9.5,1.3-14.1.1-.6.3-1.1.5-1.7.2-.6.4-1.5,1.1-1.4.5,0,.6.3.5.7Z"/>
      <path class="cls-15" d="m127.2,50.7c.2,1.1-.3,2.4.5,3.5.2,2.8.4,5.5,0,8.3-.9-3.9-1-7.8-.5-11.8Z"/>
      <path class="cls-24" d="m309.4,54c-.5.6-1.1,1.2-1.8,1-1.1-.3-1.1-1.7-1.5-2.7-1.3-3.9-.8-7.8-.8-11.8,0-1.3.6-1.8,1.8-1.8.1,0,.3,0,.4,0,0,0,0,.1,0,.2-.4,4.8-.4,9.5,1.2,14.1.2.5.3.8.6,1Z"/>
      <path class="cls-24" d="m312.4,3.7c-.3.2-.5.3-.8.5-5,3.8-8.1,8.8-9.9,14.7,0,0,0,.2,0,.3,0,0,0,0,0,0-.7,1-1.4,2.1-2,3.1,0-4.6,2.3-8.2,4.5-11.9,1.6-2.5,3.9-4.2,6.2-6,.6-.4,1.3-.7,2.1-.7Z"/>
      <path class="cls-24" d="m314.1,37.4c0,0,0-.2,0-.3,0-.5-.6-.8-1.1-.9-1.4-.5-2.8-.4-4.2.2-2.7,1-3.2.5-2.8-2.2.6-4,1.9-7.8,3.4-11.6.8-1.9,1.9-3.6,3-5.3.7-1.2.2-1.7-.8-2.1-2-.8-3.5-1.2-4.7-.9,1.5-1.5,2.3-.8,6.5-.1,1.4.2,2,1,1.1,2.4-.9,1.5-2,3-2.7,4.7-1.5,3.5-2.6,7.2-3.4,10.9-.9,3.9-.4,4.3,3.5,3.1,1.8-.6,3.3-.3,4.8,1.1-.9.5-1.7.9-2.6,1.1Z"/>
      <path class="cls-23" d="m305.1,22.9c-.2.3-.3.6-.4,1,0,0,0,0,0,0-2.8,5.3-3.2,11-3.3,16.9,0,4-.6,8.1.5,12,.1.4.2.8-.3.9-.1,0-.3,0-.4,0-.4,0-.7-.3-.8-.7,0-.3-.1-.5-.2-.8-.3-1.2-.6-2.4-.7-3.7-.7-8.2.8-16.2,3-24.1.3-.9.7-1.8,1.8-2,.3,0,.6.2.6.4Z"/>
      <path class="cls-37" d="m105.7,48.5c-1.6,2.6-3.2,5.2-4.9,8,1.5.3,2.7,0,3.8,0-.3,1-1.3,1-2.2,1-1.1,0-2.7.7-3.3-.1-.6-.9.8-2,1.3-2.9,1.6-2.8,3.4-5.5,5-8.2.2,0,.3,0,.5.1,0,.7-.2,1.4-.3,2.2Z"/>
      <path class="cls-20" d="m112.5,38.3c-.4-.9,0-1.6.7-2.6,0,1.3,0,2-.7,2.6Z"/>
      <path class="cls-46" d="m182.8,26.6c-.2.3-.4.6-.6,1-2.8,5-5,10.4-6.6,15.9-1,3.2-2.1,6.3-2.4,9.7-.2,1-.5,2-.6,3,0,.3-.2.6-.2.8-.1.5-.2,1.1-.8,1.1-.7,0-.5-.7-.6-1.2,0-.3,0-.6,0-1.2.4-4.6,2.1-9.1,3.5-13.7,1.5-4.5,3.3-8.9,5.7-13,.7-1.1,1.3-2.3,2.7-2.3Z"/>
      <path class="cls-46" d="m276.2,15.8c-.2.3-.4.6-.5.9-2.2,3.9-4.1,8.1-5.5,12.4-1.6,4.9-3.5,9.8-3.8,15,0,.3,0,.8,0,1.1h0c0,0,0,0,0,0-.4.6,0,2-1.1,1.8-1-.2-.3-1.3-.6-2.1.4-4.8,2.1-9.3,3.6-13.9,1.4-4.5,3.3-8.8,5.6-12.8.6-1,1.2-2.1,2.3-2.4Z"/>
      <path class="cls-6" d="m289.8,72.7c.6-.7,1.6-.5,2.3-.9.3-.1.7,0,1.4,0-1.4.8-2.5,1-3.7.9h0Z"/>
      <path class="cls-21" d="m289.8,72.7c-.5.6-1.1.5-1.8.3.6-.5,1.2-.2,1.8-.3,0,0,0,0,0,0Z"/>
      <path class="cls-9" d="m72.2,85.7c.6,0,1.1,0,1.7,0-.5.5-1.1,1.1-1.9.7-.3-.1,0-.5.2-.7Z"/>
      <path class="cls-40" d="m82.2,26.2c-3.6.2-7,1.1-10.3,2.5-1.3.6-2.6,1.2-3.8,1.9,1.3-.7,2.6-1.2,3.9-1.7,2.4-.9,5-1.4,7.6-1.8,4-.6,7.1,1.1,9.9,3.5,2.4,2,2.6,4.8,2.2,7.6-.3,1.9-.5,3.9-1.8,5.1.6,0,1.1-.2,1.5-.4,1.1-.6,1.2-2.2,1.6-3.4,2.3-7.5-2.9-13.8-10.7-13.2Z"/>
      <path class="cls-40" d="m91.8,84.7c-.4-.5-1.2-.3-1.8-.3-1,0-2-.1-3-.3-6.9-2.2-12.2-6.8-17.6-11.3-.7-.6-.7-1.2,0-1.8,2.1-1.9,3.8-4.1,5.8-6.2,5.1-5.4,10.1-10.8,14-17.1,1.6-2.5,1.8-2.9-.5-3.7-.8.3-1.8.4-3.1.3,3.6,1.5,3.7,1.7,1.8,4.5-4,6.2-8.9,11.6-13.9,16.9-1.9,2-3.7,4.2-5.8,6.2-.5.5-.8,1-.1,1.6,5.7,4.9,11.4,9.9,19,11.8.4.1.8.3,1.2.4.7.2,1.9-.6,2.2.6.1.5-.2.8-.6,1.1.1,0,.2,0,.3,0,.1,0,.3-.1.5-.2.1,0,.2,0,.3,0,.9-.3,1.7-.6,1.6-1.7,0-.3-.1-.5-.3-.6Z"/>
      <path class="cls-40" d="m69.7,40.5c-1.3,1.9-1.6,4.2-2.1,6.3-1.7,6.3-2.6,12.8-3.3,19.9-.2.2-.4.4-.6.7-.2.2-.4.4-1.2,1,.3-2.9.5-5.2.8-7.6,1.1-6.6,1.9-13.3,4.7-19.5.3-.6.5-1.3,0-1.8-2.3-1.8,0-2.6.9-3.2,1.6-1,3.2-1.9,4.8-2.9.6-.4,1.2-.8,1.9-1-2.5,1.4-4.6,3.4-7.2,4.7,1,1.2,2.6,1.7,1.5,3.4Z"/>
      <path class="cls-40" d="m74.2,83.5c0,.2-.2.3-.3.4,0,0,0,0,.1,0,2.8,1.7,5.6,3.4,9.1,3.5-3.2-.8-6.1-2.3-8.9-4Z"/>
      <path class="cls-40" d="m64.9,85.5c-.2-.4-.3-.9-.5-1.3-.9-1.6-.9-3.3-.9-5,0-.3,0-.5,0-.7,0,0-.1-.1-.2-.2-.7-.5-1.4-.8-1.3.5.1,2.3-.3,4.6.8,6.8.1.4.3.8.4,1.3h0c0,0,.2,0,.3,0h.1c.3,0,.6,0,.9,0,.2,0,.4-.2.5-.3,0,0,0,0,0,0,.1-.2.2-.4.2-.6,0,0,0,0,0-.1h0c-.1,0-.2,0-.3-.1Z"/>
      <path class="cls-40" d="m59.8,62.1c-.3,2.5-.3,4.9,0,7.4,0,.6,0,1.2,0,1.8,0,.6,0,1.2.3,1.5h0c0,.6-.2,1.3-.9,1.3-.8,0-1.2-.8-1.2-1.5.4-5.9-.2-11.9,2.4-17.5-.2,2.3-.4,4.7-.7,7Z"/>
      <path class="cls-40" d="m61.7,46.3h0s0,0,0,0c0,0,0,0,0,0Z"/>
      <path class="cls-40" d="m61,49.7c0,0-.3-.1-.3,0-.4.3-.3.7-.2,1.1,0,.9-.7,1.8,0,3,.7-1.1.5-2.1.5-3,.3-.3.5-.7.1-1.1Z"/>
      <path class="cls-40" d="m59.8,46.4c-.5.6-.5,1.2-.1,2.1.2-.5.4-.9.5-1.2.6-2,1.5-3.9,1.9-6.4-2,1.7-2,3.6-2.3,5.5Z"/>
      <path class="cls-40" d="m54.4,52c-.7,1.4-1.8,2.6-1.5,4.3,0,.2.1.5.1.7.3,0,.6,0,.9-.2,0,0,.1,0,.2,0,.2-1.4.3-2.7.6-4.1,0-.2,0-.4-.3-.7Z"/>
      <path class="cls-17" d="m61.6,46.4h0s0,0,0,0c0,0,0,0,0,0Zm0,0h0s0,0,0,0c0,0,0,0,0,0Zm0,0h0s0,0,0,0c0,0,0,0,0,0Zm0,0h0s0,0,0,0c0,0,0,0,0,0Zm27.8-15.7c-2.8-2.4-5.8-4.1-9.9-3.5-2.6.4-5.1.9-7.6,1.8-1.3.5-2.7,1.1-3.9,1.7-3.5,2-6.7,4.4-9.7,7.1l-4.1,4.4c-2.3,3-4.7,5.9-5.6,9.7-.7,3,1.5,5.4,4.4,5.1,0-.2,0-.4-.1-.7-.3-1.7.8-3,1.5-4.3.2.3.4.5.3.7-.2,1.4-.4,2.7-.6,4.1.5-.2.8-.4.6-1.1-.6-1.9.8-3.2,1.5-4.8.2.5.2.9.2,1.3-1.5,9.4-1.5,18.8-.3,28.1.6,5,1.2,6.1,7.1,6.4-.1-.4-.3-.8-.4-1.3-1.1-2.2-.7-4.5-.8-6.8,0-1.3.7-1,1.3-.5,0,0,.1.1.2.2,0-.3,0-.5,0-.8,0-1.6,1-.7,1.6-.3,2.9,2.2,5.9,4.5,9.1,6.2,2.8,1.7,5.7,3.2,8.9,4,2.1.3,4.1.2,6.2-.1.4-.2.7-.5.6-1.1-.2-1.2-1.4-.4-2.2-.7-.4-.1-.8-.2-1.2-.4-7.6-1.9-13.2-6.9-19-11.8-.7-.6-.4-1.1.1-1.6,2-2,3.8-4.1,5.8-6.2,5-5.3,9.9-10.7,13.9-16.9,1.8-2.8,1.8-3-1.8-4.5,1.3.1,2.3,0,3.1-.3-.3-.1-.7-.3-1.2-.4.8-.1,1.6-.2,2.3-.3,1.3-1.2,1.5-3.2,1.8-5.1.4-2.8.2-5.6-2.2-7.6Zm-27.1,19.6c-.3-.7-.3-1.2.1-1.8,0-.6,0-1.3.7-2.3-.1,1.2-.2,2-.2,2.7,0,.5,0,.9-.6,1.4Zm0,.6c.5,1,.4,1.5-.2,2.1-.5-.7-.3-1.3.2-2.1Zm1.7-10.5c-.7,2-1.3,4-2,6,0,.2-.2.5-.3.9,0,.5,0,1,0,1.5-.9-.6-.7-1.2-.4-1.7-.1-.6,0-1.1.3-1.6.5-1.8.2-4,2.4-5.1Zm-2.2,18.1c-.4,3.6-.7,7.2,0,10.8.1.6.2,1.3.2,1.9,0,.7.1,1.9-.9,1.9-.4,0-.7-.1-.9-.3h0c-.3-.4-.3-1-.3-1.5,0-.6,0-1.2,0-1.8,0-1.6,0-3.1.1-4.7.2-3.7.4-7.4,2.1-10.8-.1,1.5-.2,3-.4,4.6Zm25.5-26.4c-.4,2.4-1.2,4.6-2.3,6.8-5.1,10.2-12.3,18.9-19.6,27.5-.2.2-.5.4-1.3,1,0-.3,0-.5,0-.8.7-7.1,1.6-13.5,3.3-19.9.6-2.2.9-4.4,2.1-6.3,1.1-1.7-.5-2.2-1.5-3.4,2.6-1.3,4.8-3.3,7.2-4.7,1.6-.9,3.4-1.6,5.5-1.8,1.4,0,2.7-.9,4.2-1,1.9,0,2.4.8,2.2,2.5Zm-25.6,14.1s0,0,0,0h0s0,0,0,0Zm0,0h0s0,0,0,0c0,0,0,0,0,0Zm0,0h0s0,0,0,0c0,0,0,0,0,0Z"/>
      <path class="cls-17" d="m61.7,46.3h0s0,0,0,0c0,0,0,0,0,0Z"/>
      <path class="cls-17" d="m60.7,49.7c0,0,.3,0,.3,0,.3.4.2.7-.1,1.1,0,.9.2,2-.5,3-.6-1.2.2-2.1,0-3,0-.4-.1-.8.2-1.1Z"/>
      <path class="cls-17" d="m59.8,46.4c.3-1.9.3-3.8,2.3-5.5-.4,2.5-1.3,4.4-1.9,6.4-.1.3-.3.7-.5,1.2-.4-.9-.4-1.5.1-2.1Z"/>
      <path class="cls-17" d="m59.8,62.1c-.3,2.5-.3,4.9,0,7.4,0,.6,0,1.2,0,1.8,0,.6,0,1.2.3,1.5h0c0,.6-.2,1.3-.9,1.3-.8,0-1.2-.8-1.2-1.5.4-5.9-.2-11.9,2.4-17.5-.2,2.3-.4,4.7-.7,7Z"/>
      <path class="cls-17" d="m69.7,40.5c-1.3,1.9-1.6,4.2-2.1,6.3-1.7,6.3-2.6,12.8-3.3,19.9-.2.2-.4.4-.6.7-.2.2-.4.4-1.2,1,.3-2.9.5-5.2.8-7.6,1.1-6.6,1.9-13.3,4.7-19.5.3-.6.5-1.3,0-1.8-2.3-1.8,0-2.6.9-3.2,1.6-1,3.2-1.9,4.8-2.9.6-.4,1.2-.8,1.9-1-2.5,1.4-4.6,3.4-7.2,4.7,1,1.2,2.6,1.7,1.5,3.4Z"/>
      <path class="cls-40" d="m167.3,19.3c-.8-.4-1.8-.8-2.4-1.4-1.5-1.4-2.8-1.1-4.1,0-.1,0-.2.2-.4.3-5.2,4.6-9.9,9.5-14.3,14.8-4.3,5.3-8.3,10.9-12.2,16.6,0-.5,0-1,.2-1.5.6-5.9,2-11.6,3.1-17.4,1.1-5.6,1.1-5.5-4.3-7.7-1.3-.5-2.1-.3-3,.7h0c-1.4,1.7-2.2,3.8-3,5.7-5.7,13.3-6.5,27.3-5.9,41.4.1,3.3,1.1,6.3,5,7.6,1.3.4,2.4.5,3.2.3,1.3-.3,2.2-1.3,2.7-3.3.5-1.7,1-3.5,1.4-5.2.3-1.2.2-2.3-.9-3.1-.6-.5-.9-.9-.8-1.2,0-.3.6-.6,1.3-.7.3,0,.6-.2.8-.3,1.1-.5,1.9-1.3,2.5-2.6,3.7-7.4,8.5-14.1,13.5-20.6.5-.6,1-1.2,1.5-1.8.6-.7,1.2-1.3,1.8-2-.1,2.4-.6,4.7-1,7-1.3,6.6-2.1,13.2-1.2,20,.7,4.6,4.1,7.8,8.8,7.1.6,0,1.3-.2,2-.5-.6-1.5-1.3-3.1-1.3-4.8.2-7.3,1.7-14.3,3.8-21.2,2.1-6.7,4-13.4,6-20.1,1-3.3.1-4.8-2.9-6.3Zm-37.9,34c.2,2.8.5,5.6,0,8.5-.9-3.2-.9-6.4-.7-9.7-.1-.6,0-1.2.1-1.8,0-.2,0-.3,0-.5,0-2,0-3.9.2-5.9.2-2.8.6-5.5,1.1-8.3,0-.1,0-.2,0-.4,0,0,0-.2,0-.3h0s0,0,0,0c0,0,0-.1,0-.2,0,0,0-.2,0-.3,0,0,0-.2,0-.3,0-.2.1-.3.2-.5.2-.5.3-1.3,1-1.2.8.2.4.9.3,1.5-.9,6.4-1.8,12.8-2.6,19.2Z"/>
      <path class="cls-17" d="m264.8,15.2c-.6,2.2-1.9,4.1-3.3,5.8-3.5,4.4-6.9,8.7-11.4,12.2-2,.5-5.3.3-6.3-.6-.8-.7-.2-1.1.2-1.6,3.8-4.3,7.4-8.8,10.7-13.6.4-.6,1.3-1.1.8-1.8-.5-.6-1.4-.2-2,.2-.6.4-1.1.8-1.7,1.2,0,0,0,0,0,0-2.4.9-4,3-6.1,4.4-5.7,3.8-10.3,8.9-14.2,14.4-1.1,1.6-2.8,3-2.9,5.1,0,.5-.8,1-.2,1.6.5.5,1.1,0,1.6-.2,5.4-1.4,10.7-2.8,16.3-3.2,3.1-.2,5.9.4,8.6,1.7,2.6,1.3,3.5,3.3,2.4,6-2.1,5.3-6.3,9-10.4,12.8-.5.4-1,.9-1.5,1.3-.6.4-1.2.8-1.9,1.2-3.4,2.1-7,4.2-11,5-3.1.6-5.9-.1-8.5-1.6-.4-.2-.8-.6-1.1-1,0-.1-.1-.2-.2-.3,2.4,1.7,4.5.4,6.6-.8,1.9-1,3.7-2.1,5.4-3.2,0,0,0,0,0,0,5.3-3.2,10-7.1,14.2-11.7,1.8-1.9,3.2-4,4-6.6.4-1.3,0-1.6-1.2-1.4-3.6.6-7.3,1.2-10.8,2.4-3.5,1.2-7,2.8-10.8,2.8-1.9,0-3.7-.4-5.5-1.1-3.7-1.6-4.5-3.8-3.2-7.6,1.2-3.8,3.7-6.7,6-9.7,4.4-5.7,9.8-10.2,15.8-14,0,0,0,0,0,0,2.1-1.2,4.2-2.3,6.5-3.4,4.8-2.3,10.1-1.3,14,2.3.9.9,1.3,1.8.9,3.1Z"/>
      <path class="cls-40" d="m234.8,60.1c-1.8,1.1-3.6,2.2-5.4,3.2-2.1,1.1-4.3,2.5-6.6.8,0,0,0,0,0,0-.2-.5-.3-1,0-1.5.5-.6,1.3-.5,1.8-.1,2.3,2,4.4.8,6.6-.3,1.3-.6,2.5-1.3,3.7-2.1Z"/>
      <path class="cls-40" d="m259.9,43.8c0,.2,0,.3,0,.5,0,.4-.2.7-.4,1.1-3.1,6.7-8.1,11.5-14,15.5.5-.4,1-.8,1.5-1.3,4.1-3.8,8.2-7.5,10.4-12.8,1.1-2.7.2-4.7-2.4-6-2.7-1.3-5.5-1.9-8.6-1.7-5.6.4-10.9,1.8-16.3,3.2-.5.1-1.1.7-1.6.2-.6-.5.1-1,.2-1.6.2-2.2,1.8-3.6,2.9-5.1,4-5.5,8.6-10.6,14.2-14.4,2.1-1.4,3.6-3.5,6.1-4.4,0,0,0,0,0,0-1.5,1.1-2.9,2.2-4.4,3.3-4.6,3.4-8.7,7.4-12.1,12-2,2.7-4.4,5.2-5.2,9.1,4-1,7.9-2,11.7-2.7,5.1-1,10.2-1.9,15.2.8,2,1.1,3,2.6,2.8,4.4Z"/>
      <path class="cls-40" d="m266.7,14.6c-1.2,3.3-3.7,5.8-5.8,8.5-2.7,3.6-6.1,6.5-9.4,9.5-.3.2-.7.4-1.3.6,4.4-3.5,7.9-7.9,11.4-12.2,1.4-1.7,2.7-3.6,3.3-5.8.3-1.3,0-2.2-.9-3.1-3.9-3.7-9.1-4.6-14-2.3-2.2,1.1-4.4,2.2-6.5,3.4,1.2-.8,2.5-1.5,3.7-2.2,2.7-1.5,5.4-3,8.5-3.8,1.7-.4,3.2-.3,4.8.6,1.4.8,3,1.5,4.4,2.2,2.1,1.2,2.6,2.3,1.8,4.6Z"/>
      <path class="cls-40" d="m301.5,19.9c0-.3,0-.5.1-.7,0,.3-.1.5-.1.7Zm7.3,33.1c-1.7-4.6-1.6-9.3-1.2-14.1,0,0,0-.1,0-.2-.1,0-.3,0-.4,0-1.3,0-1.8.4-1.8,1.8,0,3.9-.5,7.9.8,11.8.4,1,.4,2.4,1.5,2.7.7.2,1.3-.4,1.8-1-.2-.2-.4-.5-.6-1Zm1.5-48.6c-2.3,1.8-4.6,3.5-6.2,6-2.3,3.7-4.6,7.3-4.5,11.9.7-1,1.4-2,2-3.1,0,0,0,0,0,0,0,0,0-.2,0-.3,1.8-5.9,4.8-10.9,9.9-14.7.3-.2.5-.4.8-.5-.8,0-1.5.3-2.1.7Zm6.4,31.8c-1.5-1.4-3-1.7-4.8-1.1-3.9,1.2-4.3.9-3.5-3.1.8-3.7,1.9-7.4,3.4-10.9.7-1.7,1.8-3.2,2.7-4.7.9-1.5.4-2.2-1.1-2.4-4.2-.7-5-1.3-6.5.1,1.3-.3,2.7,0,4.7.9,1.1.4,1.6.9.8,2.1-1.1,1.7-2.2,3.4-3,5.3-1.6,3.8-2.8,7.6-3.4,11.6-.4,2.7,0,3.1,2.8,2.2,1.4-.5,2.8-.6,4.2-.2.5.2,1.1.4,1.1.9,0,.1,0,.3,0,.3.9-.2,1.7-.6,2.6-1.1Zm13.6-15.9c1-9.5-4-16.9-13-19.7-3.5-1.1-6.7-.9-9.6.7,1.8-.6,3.6-.6,5.5-.3,10.3,1.9,13.9,7.1,15.1,18.2.2,1.5.5,3.5,0,4.4-1.2,2.1,0,3.9-.4,5.8-.2,1.3-.5,2.4-1.7,3.1-.3.2-.8.5-.6.8,2.2,2.7-.1,5-.8,7.3-1.6,5.1-4.1,9.7-7.6,13.7-1.2,1.4-2.6,2.5-4,3.3,1.6-.5,3.2-1.3,4.5-2.6,5.4-5.1,8.2-11.8,10.5-18.6.4-1.1,2.2-3.1-.7-4.1,2.9-2.2,3.2-3.4,1.9-6.7,0-.2-.3-.4,0-.5,2.4-1.1,1.1-3.2,1.2-4.8Zm-16.1,16.6c0,.1,0,.3,0,.3.9-.2,1.7-.6,2.6-1.1-1.5-1.4-3-1.7-4.8-1.1-3.9,1.2-4.3.9-3.5-3.1.8-3.7,1.9-7.4,3.4-10.9.7-1.7,1.8-3.2,2.7-4.7.9-1.5.4-2.2-1.1-2.4-4.2-.7-5-1.3-6.5.1,1.3-.3,2.7,0,4.7.9,1.1.4,1.6.9.8,2.1-1.1,1.7-2.2,3.4-3,5.3-1.6,3.8-2.8,7.6-3.4,11.6-.4,2.7,0,3.1,2.8,2.2,1.4-.5,2.8-.6,4.2-.2.5.2,1.1.4,1.1.9Zm-2.6-32.8c.3-.2.5-.4.8-.5-.8,0-1.5.3-2.1.7-2.3,1.8-4.6,3.5-6.2,6-2.3,3.7-4.6,7.3-4.5,11.9.7-1,1.4-2,2-3.1,0,0,0,0,0,0,0,0,0-.2,0-.3,1.8-5.9,4.8-10.9,9.9-14.7Zm-4.1,34.8c0,0,0-.1,0-.2-.1,0-.3,0-.4,0-1.3,0-1.8.4-1.8,1.8,0,3.9-.5,7.9.8,11.8.4,1,.4,2.4,1.5,2.7.7.2,1.3-.4,1.8-1-.2-.2-.4-.5-.6-1-1.7-4.6-1.6-9.3-1.2-14.1Zm-5.9-19.8c0,.3-.1.5-.1.7,0-.3,0-.5.1-.7Zm15,17c-1.5-1.4-3-1.7-4.8-1.1-3.9,1.2-4.3.9-3.5-3.1.8-3.7,1.9-7.4,3.4-10.9.7-1.7,1.8-3.2,2.7-4.7.9-1.5.4-2.2-1.1-2.4-4.2-.7-5-1.3-6.5.1,1.3-.3,2.7,0,4.7.9,1.1.4,1.6.9.8,2.1-1.1,1.7-2.2,3.4-3,5.3-1.6,3.8-2.8,7.6-3.4,11.6-.4,2.7,0,3.1,2.8,2.2,1.4-.5,2.8-.6,4.2-.2.5.2,1.1.4,1.1.9,0,.1,0,.3,0,.3.9-.2,1.7-.6,2.6-1.1Zm-6.4-31.8c-2.3,1.8-4.6,3.5-6.2,6-2.3,3.7-4.6,7.3-4.5,11.9.7-1,1.4-2,2-3.1,0,0,0,0,0,0,0,0,0-.2,0-.3,1.8-5.9,4.8-10.9,9.9-14.7.3-.2.5-.4.8-.5-.8,0-1.5.3-2.1.7Zm-1.5,48.6c-1.7-4.6-1.6-9.3-1.2-14.1,0,0,0-.1,0-.2-.1,0-.3,0-.4,0-1.3,0-1.8.4-1.8,1.8,0,3.9-.5,7.9.8,11.8.4,1,.4,2.4,1.5,2.7.7.2,1.3-.4,1.8-1-.2-.2-.4-.5-.6-1Zm-4.3-30.5c-1.1.2-1.5,1.1-1.8,2-2.2,7.9-3.7,15.9-3,24.1,0,1.2.4,2.5.7,3.7.3.5.6,1,.9,1.5.1,0,.3,0,.4,0,.5,0,.4-.5.3-.9-1.1-4-.5-8-.5-12,0-5.9.4-11.6,3.3-16.9,0,0,0,0,0,0,0-.3.2-.7.4-1,0-.2-.3-.3-.6-.4Zm-2.9-2.6c0-.3,0-.5.1-.7,0,.3-.1.5-.1.7Z"/>
      <path class="cls-17" d="m328.2,19.3c-1.1-11.1-4.8-16.3-15.1-18.2-1.9-.4-3.7-.3-5.5.3-.7.4-1.3.8-2,1.3-6.1,4.8-9.4,11.2-10.9,18.6-.8,3.9-.6,7.8,2,11.1,1.1,1.4,1.4,2.7,1.2,4.3-.5,5.2-.3,10.3,2,15,0,.2.2.3.2.5-.3-1.2-.6-2.4-.7-3.7-.7-8.2.8-16.2,3-24.1.3-.9.7-1.8,1.8-2,.3,0,.6.2.6.4,0-.1.1-.3.2-.4.4-.6,1.1-1.2,1.8-.6.7.6-.3.9-.5,1.3-2.1,4.1-2.7,8.5-3.1,13-.3,3.7-.1,7.5-.2,11.2,0,1.4.2,2.7.6,4.1.1.4.7,1.2-.2,1.4-.6.1-1.1-.4-1.2-1-.3-1.6-.5-3.3-.8-4.9,0-.8,0-1.6,0-2.4,0-7,1-13.9,3-20.6-2.8,5.3-3.2,11-3.3,16.9,0,4-.6,8.1.5,12,.1.4.2.8-.3.9-.1,0-.3,0-.4,0,2.7,3.6,7.5,5,11.7,3.9,1.4-.7,2.8-1.8,4-3.3,3.5-4,6-8.6,7.6-13.7.7-2.3,3-4.6.8-7.3-.2-.3.3-.6.6-.8,1.2-.7,1.5-1.8,1.7-3.1.4-1.9-.7-3.8.4-5.8.5-.9.2-2.9,0-4.4Zm-16,33.1c-.4.4-.9.7-1.3,1.2-.7.7-1.2.8-1.6.5-.5.6-1.1,1.2-1.8,1-1.1-.3-1.1-1.7-1.5-2.7-1.3-3.9-.8-7.8-.8-11.8,0-1.3.6-1.8,1.8-1.8.1,0,.3,0,.4,0,1.9,0,3.8-.2,5.6-.9.3-.1.8-.2,1-.6,0,0,0-.2,0-.3,0-.5-.6-.8-1.1-.9-1.4-.5-2.8-.4-4.2.2-2.7,1-3.2.5-2.8-2.2.6-4,1.9-7.8,3.4-11.6.8-1.9,1.9-3.6,3-5.3.7-1.2.2-1.7-.8-2.1-2-.8-3.5-1.2-4.7-.9-.6.6-1.2,1.4-2.2,2.7-.9,1.2-1.7,2.5-2.5,3.8-.2.6-.3,1.2-1.2,1.7.2-.9.3-1.6.5-2.4,0-.2,0-.5.1-.7-.7,1-1.4,2.1-2,3.1,0-4.6,2.3-8.2,4.5-11.9,1.6-2.5,3.9-4.2,6.2-6,.6-.4,1.3-.7,2.1-.7,2.6-1.5,5.3-1.2,7.5,1.1,2.8,2.9,4.1,6.4,4.6,10.3,1.7,14.3-2.6,26.7-12.3,37.4Z"/>
      <path class="cls-40" d="m119.5,24.6c-.9-.4-1.8-.7-2.6-1.1-1.3-.7-2.2-.4-3,.6-.1.1-.2.3-.3.5-6,9.8-12.1,19.5-17.8,29.5-1.7,2.9-3.5,5.1-6.6,5.9-.3,0-.6.2-1,.2-1.1.2-2.1.6-3.1,1.2-.7.4-1.3.9-1.9,1.4-1.3,1.2-1.1,2.3.5,2.8,1.6.5,3.1,1.3,5.3.4-1.6,3.6-3,6.7-4.4,9.7-.4.8-.8,1.6,0,2.4.6.6,1.9.7,3.1.5,1.3-.2,2.5-.8,2.9-1.6,1.6-3.4,3.6-6.6,4.9-10.1.8-2.2,2.1-3.8,3.8-4.8,1.1-.6,2.4-1.1,3.8-1.4,3.8-.8,3.4-1.5,3.2,2.5-.2,5-.5,9.9,0,14.9.2,2.4,1.9,3.5,4.7,3.5.2,0,.5,0,.7,0,2-.2,2.7-1.1,3-3.6.6-5.3,1.2-10.6,1.7-15.9,1.2-11.5,2.4-23,5-34.2.4-1.6-.2-2.7-1.7-3.2Zm-12.8,30.8c0,.6-.4,1-1.1,1s-.7,0-1,0c-1.2.1-2.4.4-3.8,0,1.7-2.8,3.3-5.4,4.9-8,.7-1.1,1.4-2.2,2-3.3.1,0,.3,0,.4.1-.5,3.3-.9,6.7-1.4,10Z"/>
      <path class="cls-3" d="m89.6,87.3c.2-.1.3-.3.5-.4.6-.4,1.7-.6,1.5-1.6-.3-1.1-1.3-.5-2-.6-.9,0-1.8-.2-2.6-.7,10.1-1.1,20.2-.8,30.3-1.8,14.1-1.3,28.2-2.4,42.3-3.6,9.9-.8,19.7-1.5,29.6-2.4,14.7-1.3,29.4-1.9,44.1-2,9.3,0,18.6-.4,27.9-.8,11.8-.6,23.6-1.8,35.1-4.9.4,0,.9.3,1.3,0,3.2-.9,6.3-1.8,9.7-2.7-.3.9-1,.9-1.5,1.2-.2.4-.7.3-1,.6.6-.2,1,.2,1.4.3,2.8-.8,5.3-2.3,7.8-3.6.6-.3,1.5-1.4,2-.5.6.9-.8,1.1-1.4,1.5-7.3,4.3-15.3,6.7-23.5,8.6-9,2.2-18.2,2.8-27.5,3.5-10.7.7-21.4,1-32.1,1-8.2,0-16.3.1-24.5.6-13.9.7-27.7,1.8-41.5,3-10.7,1-21.4,1.9-32.2,2.8-14.1,1.1-28.2,2.3-42.4,2.5-.5,0-1,0-1.5,0Z"/>
      <path class="cls-40" d="m293.2,36.3c-.8-.2-1.5-.3-2.3-.5-1.2-.3-1.7.2-2.1,1.3,0,0,0,0,0,0-2.8,7.4-7.4,13.6-13.1,19-.5.5-.9.8-1.3.9-.9.4-1.4-.2-2-1.9-2-5.8-1-11.7.2-17.5,1.3-5.8,3.8-11.1,6.7-16.5.5-1,1.1-2,1.6-3,.3,2.1-.4,3.6-.4,5.2,0,3.7,1.8,5.5,5.4,5.1,1,0,1.5-.4,1.7-1.5,1.3-5.7,3.5-11.1,5.6-16.6,1.8-4.4,1.8-4.4-2.3-6.7,0,0-.1,0-.2-.1-1.5-1.2-2.9-1.6-4.3.2-.4.5-.9.4-1.4.3-1.6-.3-2.9.3-4.2,1.3-.3.2-.6.5-.9.8,0,0,0,0-.1,0-1.4,1.3-2.6,2.7-3.9,4.1-2.5,2.7-3.5,6.3-5.9,9.1-1.6,1.9-2.5,4.4-3.6,6.6-3.9,7.8-6.1,16-4.7,24.9.7,4.7,2.9,8.5,7.9,9.9,4,1.1,8,1.4,11.4-.7.8-.5,1.5-1.1,2.2-1.8,5.3-5.6,8.8-12.3,11.1-19.7.4-1.5,0-2-1.3-2.3Zm-25.2,7.5c0,.2,0,.4-.2.6-.2.6-.1,1.6-.9,1.5-.5,0-.6-.3-.6-.7h0c0-.4.1-.9,0-1.2.3-5.2,2.2-10.1,3.8-15,1.4-4.3,3.3-8.5,5.5-12.4.2-.3.3-.6.5-.9.6-.9,1.3-1.6,2.7-1.4.3,0,.8.2.9.5.2.4-.2.6-.5.8-.7.4-1.1,1.1-1.5,1.8-4.2,8.4-7.9,16.9-9.8,26.2Z"/>
      <path class="cls-40" d="m197.3,46.6c-.9-.1-1.6,0-1.8,1,0,.1,0,.3-.1.4-1.2,4.1-3.8,7.4-6.2,10.9-2.1,3.1-4.4,6.1-7.4,8.4-.5.4-1,.6-1.4.6-.5,0-.9-.4-1.2-1.3-.6-1.6-1.3-3.1-1.3-4.8,0-6.2.5-12.3,2.7-18.3,1.3-3.5,2.9-6.8,4.6-10.3.7-1.5,1.5-3,2.2-4.5.5,2.2-.4,3.8-.4,5.4,0,3.4,1.8,5.2,5,5,.2,0,.4,0,.6,0,.9-.1,1.3-.4,1.6-1.4,1.4-5.9,3.6-11.5,5.9-17.1,1.6-4.1,1.6-4.1-2.3-6-.3-.2-.6-.3-.9-.6-1.3-1-2.5-1-3.6.3,0,.1-.2.2-.3.3-.2.2-.5.3-.8.3s-.3,0-.5,0c-1.7-.4-3,.4-4.3,1.4,0,0-.1,0-.1.1-1.8,1.4-3.2,3.1-4.7,4.8-2.4,2.7-3.5,6.2-5.7,9-1.8,2.2-2.8,5-4.1,7.6-3.6,7.5-5.6,15.3-4.3,23.7.7,4.8,2.7,8.7,7.8,10.1,3.8,1.1,7.3,1.4,10.6-.2,1.1-.5,2.2-1.3,3.3-2.3,4.9-4.9,7.7-11.1,10.4-17.3,1.7-3.7.8-4.7-3.2-5.2Zm-23.9,10.1c-.8-.2-.4-1.1-.4-1.7,0-.6,0-1.3.1-1.9.4-3.3,1.4-6.5,2.4-9.7,1.7-5.5,3.8-10.9,6.6-15.9.2-.4.4-.7.6-1,1.1-1.6,2.1-1.7,3.8-.6-1.8,1-2.4,2.8-3.2,4.5-4,7.9-7.1,16-8.9,24.7-.1.6,0,1.7-1.1,1.5Z"/>
      <path class="cls-40" d="m224,9.6c1.8.2,3.3,1.3,4.5,2.7.9,1-.4,1.2-1.1,1.5-2.5.9-5,1.8-7.3,3.1-.8.5-1.3.8-.3,1.7.9.7.5,1.8.2,2.6-1.3,4.7-2.4,9.5-3.2,14.3-1.5,8.7-3.3,17.4-3.8,26.3,0,1.6.1,2.4,2,2.3,1.6,0,3.1.7,4.5,1.3.4.2.6.4.6.8,0,.5-.5.5-.8.5-4.8.3-9.1,2.2-13.5,3.7-1.7.6-3.4.6-5-.2-1.3-.7-1.2-1.5-.3-2.4.8-.9,2-1.1,3.1-1.4,1.1-.3,1.5-.9,1.3-2.1-1.6-8.8-.1-17.5,1.1-26.3.6-4.3,1.4-8.7,2.8-12.9.2-.5.5-1,0-1.4-.5-.4-.9.2-1.3.4-1.7.8-3.8.3-5-1.3-1.2-1.6,0-2.7,1-3.8,1.7-2,4.2-3.1,6.5-4.2,4.4-2.3,9-4.2,14.1-5.3Z"/>
      <path class="cls-38" d="m69.4,84.9c0,0,0,0-.1,0h0s.1,0,.1,0Z"/>
      <path class="cls-38" d="m83.1,87.5c-1.5,0-3,0-4.5,0h0c-.5,0-1,0-1.4,0-3.7,0-7.4-.2-11.1-.4-.1,0-.3,0-.4,0h0c-.4,0-.8-.2-1.2-.3,0,0,0-.2,0-.3h0c0,0,0-.2,0-.2,0-.2.1-.4.2-.6,0,0,0-.1,0-.2.1,0,.2,0,.3,0h0c.1,0,.3.1.5.2.1,0,.2,0,.3,0,0,0,.1,0,.2,0,0,0,.1,0,.2,0,.1,0,.3,0,.4,0,.3,0,.5,0,.8,0h.1s0,0,0,0c0,0,.1,0,.2,0,.5,0,.9-.2,1.4-.3h0c.2,0,.4-.1.6-.2.8.2,1.4.1,1.9-.3,0,0,0,0,.1-.1.1-.1.3-.3.4-.4,0-.1.2-.2.2-.4.4-.2.9.1,1.3-.1.1,0,.2-.2.3-.4,2.8,1.7,5.7,3.2,8.9,4Z"/>
      <path class="cls-31" d="m324.8,56.9c-.7,1-2.1,2.4-3.7,3.6,1.4-1.4,2.8-2.7,3.7-3.6Z"/>
      <path class="cls-16" d="m306.2,68c-.8.6-1.5-.6-2.4-.3.6-.2,1.3-.4,1.9-.6.2.3.3.6.5.9Z"/>
      <path class="cls-25" d="m329.1,50.4c.5-.8.6-1.3,1.7-1.5-.4.8-.6,1.3-1.7,1.5Z"/>
      <path class="cls-10" d="m327.5,52.7c.3-.8.5-1.4,1.5-1.5-.3.7-.5,1.2-1.5,1.5Z"/>
      <path class="cls-10" d="m327.5,53.1c-.4,1-.6,1.6-1.6,1.7.3-.7.6-1.1,1.6-1.7Z"/>
      <path class="cls-39" d="m334.6,44.8c0-1,.6-1.1,1.3-1.6,0,1-.5,1.3-1.3,1.6Z"/>
      <path class="cls-35" d="m297.5,68.6c-.5.5-.9.5-1.3,0,.5-.7.9-.2,1.3,0Z"/>
      <g>
        <path class="cls-5" d="m56.1,28.1c-6.8.5-12.8,3.1-18.8,5.9,3.4-1.3,6.8-2.6,10.2-3.8,3.2-1.1,7-1.3,10-1.4s1.1-.1,1.6-.3l.8-.3c.9-.3,1.5-1.2,1.5-2.2v-.4s-5.2,2.5-5.2,2.5h0Z"/>
        <g>
          <path class="cls-5" d="m30,65.5c-.6.2-1,.4-1.4.8,7.4-2.4,14.6-6.2,22.8-5.6,1.2.1,1.7-.4,1.5-1.3-8.2-.1-15.3,3.8-22.9,6.1Z"/>
          <path class="cls-5" d="m8.8,36.3c3.2-2.1,6.7-3.7,9.7-6,2.1-1.7,4.4-2.9,6.8-3.9-1.7-.3-2.9.3-3.9,1.5-.8.9-1.8,1.5-2.9,2.2-3.5,2-7.1,4.1-10.6,6.2-2.5,1.6-5,3.3-6.8,5.7-1.5,1.9-1.6,3.9.4,5.6,2.6,2.3,5.2,4.1,8.7,1-2.1.6-3.8-.2-6.2-2.4-1.8-1.7-1.7-3.4-.4-5.1,1.4-1.9,3.2-3.4,5.1-4.7Z"/>
          <path class="cls-5" d="m25,36.1c-.2.5-.4,1-.6,1.6-.8,3-1.5,5.9-2.1,8.9t0,0c-.6,2.7-1.1,5.4-1.5,8.1,0,0,0,.2,0,.2,0,.4-.1.8-.2,1.2,0,0,0,.1,0,.2-.1,1-.2,1.9-.3,2.9-.1.8-.2,1.6-.2,2.4h0c0,0,0,.1-.1.1l-.2,3.7h-.1s-.1-3.8-.1-3.8c-.1,0-.3,0-.4,0-.8,5.4,0,10.9-.9,16.3-1.5-4.3-1.3-8.9-1.1-13.3.5-8.2,2.2-16.3,4.2-24.3.3-1.2.7-2.3,1.1-3.4.4-1,1.2-1.4,2.3-1.1.1,0,.3.1.3.2Z"/>
          <path class="cls-5" d="m12.4,86c0-3.4,0-6.7.2-10,0-1.4-.2-2.3-1.9-2.8-4.5-1.3-5.6-5.4-1.9-8.1,3.4-2.5,5-5.5,5.2-9.6.2-2.7,1-5.3,1.6-7.9.1-.5.4-1.1-.3-1.5-.5-.2-.9,0-1.3.4-.2.1-.4.3-.7.5-.3.2-.6.4-.8.5,0,0,0,0,0,0,.8.6,0,1.6,0,2.4-.4,2.4-1.4,4.7-1.3,7.1.2,4.5-2.2,7.1-5.4,9.5-.8.6-1.4,1.2-1.9,2-.5.9-.6,1.8.1,2.6,1.3,1.4,2.1,3.3,4.4,3.7,1.6.2,1.5,1.4,1.3,2.6-.5,3.6-.3,7.2,0,10.8.3,5.3,4.4,9,9.2,8.8,1.2,0,1.7-.4,2-1.2-4.4-.4-8.5-3.1-8.6-9.6Z"/>
          <path class="cls-44" d="m25,36.1c-.2.5-.4,1-.6,1.6-.8,3-1.5,5.9-2.1,8.9t0,0c-.7,1.9-1.1,3.9-1.3,6-1.3,1.7-.6,3.8-.9,5.7,0,.1,0,.3-.1.4-.3,1-.1,2.1-.9,2.9-.8,5.4,0,10.9-.9,16.3-1.5-4.3-1.3-8.9-1.1-13.3.5-8.2,2.2-16.3,4.2-24.3.3-1.2.7-2.3,1.1-3.4.4-1,1.2-1.4,2.3-1.1.1,0,.3.1.3.2Z"/>
          <path class="cls-32" d="m20.9,52.6c0,.7,0,1.4-.1,2.1,0,0,0,.2,0,.2,0,.4-.1.8-.2,1.2,0,0,0,.1,0,.2-.1.6-.3,1.3-.5,1.9-.1-1.9-1.7-4.1.9-5.7Z"/>
          <path class="cls-41" d="m20.1,61.6h0c0,0,0,.1-.1.1-.1.2-.3.1-.5-.1-.1,0-.3,0-.4,0-.2-1.1-.3-2.2.9-2.9,0,.2.2.3.3.5-.1.8-.2,1.6-.2,2.4Z"/>
          <path class="cls-27" d="m20.1,61.6c0,0,0,.1-.1.1l-.2,3.7h-.1s-.1-3.8-.1-3.8h.6Z"/>
          <path class="cls-40" d="m56.1,28.1h2.7c.9-.1,1.8-.6,2.3-1.4h0c.7-1.3.7-2.8-.2-3.9-2.2-3-5.4-4.2-9.6-3.9-4.4.4-8.7,1.2-12.7,2.8-4.4,1.7-9,2.8-13.4,4.7,2.2.4,4-1.2,6-1.9,5.7-2,11.3-4,17.4-4.4,4.8-.4,8.3,1.2,10.6,5.5l-3.2,2.5Z"/>
          <path class="cls-40" d="m55.5,57.7c-1.3-3.2-5.1-5.4-8.7-5.3-4.9.2-9.6,1-14.3,2.3-1.7.5-2.5.8-2.1-1.7.9-5.4,2.4-10.7,3.5-16,.2-.8.3-1.7,1.2-2.1.7-.3,1.4-.6,2.1-1-.9.4-1.8.7-2.8,1.1-2,.8-3.2,2-3.6,4.2-1,5-2,10-3.2,14.9-.4,2-.1,2.5,2,1.9,4.7-1.5,9.6-2.2,14.5-2.3,3.6-.1,7.2,2,8.5,5.2,0,.2.2.4.2.6.5,0,.9,0,1.4,0,1.3.1,1.7-.5,1.2-1.7Z"/>
          <path class="cls-40" d="m27.1,66.7c-1.4.4-2.1,1.5-2.5,3-1.8,8.3-2.9,16.6-3.5,25,0,.4,0,.7-.2.9.1,0,.3,0,.4,0,1.6.1,2.4-.3,2.5-2.3.5-8.3,1.8-16.4,3.4-24.5.2-1.1.6-2,1.3-2.7-.5.2-1,.3-1.5.5Z"/>
          <path class="cls-40" d="m25,36.1c-.2.5-.4,1-.6,1.6-.8,3-1.5,5.9-2.1,8.9t0,0c-.6,2.7-1.1,5.4-1.5,8.1,0,0,0,.2,0,.2,0,.4-.1.8-.2,1.2,0,0,0,.1,0,.2-.1,1-.2,1.9-.3,2.9-.1.8-.2,1.6-.2,2.4h0c0,0,0,.1-.1.1l-.2,3.7h-.1s-.1-3.8-.1-3.8c-.1,0-.3,0-.4,0-.8,5.4,0,10.9-.9,16.3-1.5-4.3-1.3-8.9-1.1-13.3.5-8.2,2.2-16.3,4.2-24.3.3-1.2.7-2.3,1.1-3.4.4-1,1.2-1.4,2.3-1.1.1,0,.3.1.3.2Z"/>
          <path class="cls-40" d="m10.5,48.3c0,0-.2.2-.3.2.7-.2,1.5-.6,2.3-1.1-.8-.5-1.5.4-2.1.9Z"/>
          <path class="cls-17" d="m30.9,39.2c.4-2.2,1.6-3.4,3.6-4.1.9-.3,1.8-.7,2.8-1.1,6-2.8,12.1-5.4,18.9-5.9l3.2-2.5c-2.3-4.3-5.7-5.9-10.6-5.5-6.1.5-11.8,2.4-17.4,4.4-2,.7-3.8,2.2-6,1.9h0c-2.4,1-4.7,2.2-6.8,3.9-3,2.3-6.5,4-9.7,6-2,1.3-3.8,2.8-5.1,4.7-1.3,1.8-1.4,3.4.4,5.1,2.4,2.3,4.1,3.1,6.2,2.4,0,0,.2-.2.3-.2.5-.5,1.3-1.4,2.1-.9.2-.1.5-.3.8-.5.3-.1.5-.3.7-.5.4-.3.8-.6,1.3-.4.7.3.4,1,.3,1.5-.5,2.6-1.4,5.3-1.6,7.9-.2,4.1-1.8,7.1-5.2,9.6-3.7,2.7-2.7,6.8,1.9,8.1,1.7.5,1.9,1.4,1.9,2.8-.1,3.3-.2,6.7-.2,10,0,6.5,4.2,9.2,8.5,9.6,0-.2.1-.5.2-.9.6-8.4,1.8-16.8,3.5-25,.3-1.6,1-2.6,2.5-3,.5-.1,1-.3,1.5-.5.4-.3.8-.6,1.4-.8,7.5-2.3,14.7-6.2,22.9-6.1,0-.2,0-.4-.2-.6-1.4-3.2-4.9-5.3-8.5-5.2-5,.2-9.8.9-14.5,2.3-2.1.7-2.4.1-2-1.9,1.1-5,2.2-9.9,3.2-14.9Zm-4.3,3.1c-1.9,2.8-2.4,6-2.9,9.2-.6,1.3-1,2.6-1,4-.3.7-.7,1.4,0,2.1-1.2.7-.9,1.9-.8,3-.8,5.4,0,10.9-.9,16.4-.9-1.8-1-3.7-1.1-5.6,0-1.9-.2-3.8,0-5.8l.2-3.7c0,0,0,0,.1-.1h0c0-.8.1-1.6.2-2.3,0-1,.2-1.9.3-2.9,0,0,0-.1,0-.2,0-.4.1-.8.2-1.2,0,0,0-.1,0-.2.4-2.7.9-5.4,1.5-8.1t0,0c.6-3,1.3-6,2.1-8.9.2-.5.3-1.1.6-1.6,0-.2.1-.3.2-.5.5-1,1.3-1.3,2.3-1,1,.4,1.1,1.2.9,2.1-.5,1.9-.7,3.9-1.8,5.5Z"/>
          <path class="cls-17" d="m25,36.1c-.2.5-.4,1-.6,1.6-.8,3-1.5,5.9-2.1,8.9t0,0c-.6,2.7-1.1,5.4-1.5,8.1,0,0,0,.2,0,.2,0,.4-.1.8-.2,1.2,0,0,0,.1,0,.2-.1,1-.2,1.9-.3,2.9-.1.8-.2,1.6-.2,2.4h0c0,0,0,.1-.1.1l-.2,3.7h-.1s-.1-3.8-.1-3.8c-.1,0-.3,0-.4,0-.8,5.4,0,10.9-.9,16.3-1.5-4.3-1.3-8.9-1.1-13.3.5-8.2,2.2-16.3,4.2-24.3.3-1.2.7-2.3,1.1-3.4.4-1,1.2-1.4,2.3-1.1.1,0,.3.1.3.2Z"/>
          <path class="cls-22" d="m20.1,61.6c0,0,0,.1-.1.1,0,0,0,0,0-.1h0Z"/>
        </g>
      </g>
      <path class="cls-14" d="m61.7,46.3h0s0,0,0,0c0,0,0,0,0,0Z"/>
      <path class="cls-47" d="m69.4,84.9c0,0,0,0-.1,0h0s.1,0,.1,0Z"/>
      <path class="cls-34" d="m61.7,46.3h0s0,0,0,0c0,0,0,0,0,0Z"/>
      <path class="cls-11" d="m130.6,34.2c0,0,0,.2,0,.3,0,0,0,.2,0,.3,0,0,0,.1,0,.2,0-.2.1-.5.2-.7Z"/>
      <path class="cls-2" d="m301.7,19.2c0,.3,0,.5-.1.7,0-.2,0-.5.1-.7Z"/>
      <path class="cls-19" d="m290.7,71.4h2c-.7.6-1.4.3-2.1.4-.1,0-.2-.2-.1-.3,0,0,0-.1.1-.1Z"/>
      <path class="cls-43" d="m302.6,68.2c-.3.8-.8.5-1.2.4.4-.1.7-.2,1.2-.4Z"/>
      <path class="cls-42" d="m290.7,71.4c0,.1,0,.3,0,.4-.3.5-.8.6-1.5.3.6-.3,1.1-.5,1.5-.7Z"/>
    </g>
  </g>
</svg>